<svg version="1.1" xmlns="http://www.w3.org/2000/svg" xmlns:xlink="http://www.w3.org/1999/xlink" width="414.6" height="354.20000000000005"><defs><linearGradient id="SeyhPUPZLEvp" x1="2406.0000014305115px" x2="1506.0000014305115px" y1="1095.4000014305116px" y2="2042.1000042915348px" gradientUnits="userSpaceOnUse"><stop offset="0" stop-color="rgb(211,211,211)" stop-opacity="1"/><stop offset="1" stop-color="rgb(29,122,218)" stop-opacity="1"/></linearGradient><linearGradient id="XSlBWNVvPcDc" x1="2406.0000014305115px" x2="903.0000007152557px" y1="1095.4000014305116px" y2="2707.1000078678135px" gradientUnits="userSpaceOnUse"><stop offset="0" stop-color="rgb(211,211,211)" stop-opacity="1"/><stop offset="1" stop-color="rgb(29,122,218)" stop-opacity="1"/></linearGradient><linearGradient id="CyyOsxmXXaTW" x1="2406.0000014305115px" x2="903.0000007152557px" y1="1095.4000014305116px" y2="2574.1000071525577px" gradientUnits="userSpaceOnUse"><stop offset="0" stop-color="rgb(211,211,211)" stop-opacity="1"/><stop offset="1" stop-color="rgb(29,122,218)" stop-opacity="1"/></linearGradient><linearGradient id="LvqPtQnOfgav" x1="2132.0000014305115px" x2="576.5px" y1="1056.4000014305116px" y2="300px" gradientUnits="userSpaceOnUse"><stop offset="0" stop-color="rgb(211,211,211)" stop-opacity="1"/><stop offset="1" stop-color="rgb(0,0,0)" stop-opacity="1"/></linearGradient><linearGradient id="cgOKuSWNBzJR" x1="2930.200002145767px" x2="2680.0000014305115px" y1="1056.4000014305116px" y2="1056.4000014305116px" gradientUnits="userSpaceOnUse"><stop offset="0" stop-color="rgb(211,211,211)" stop-opacity="1"/><stop offset="1" stop-color="rgb(211,211,211)" stop-opacity="1"/></linearGradient><linearGradient id="ayRpymQTWzTf" x1="2930.200002145767px" x2="1782.5000014305115px" y1="1056.4000014305116px" y2="2216.6000050067905px" gradientUnits="userSpaceOnUse"><stop offset="0" stop-color="rgb(211,211,211)" stop-opacity="1"/><stop offset="1" stop-color="rgb(29,122,218)" stop-opacity="1"/></linearGradient><linearGradient id="XuNXUPpvgLgE" x1="2406.0000014305115px" x2="2406.0000014305115px" y1="439px" y2="1017.4000014305116px" gradientUnits="userSpaceOnUse"><stop offset="0" stop-color="rgb(211,211,211)" stop-opacity="1"/><stop offset="1" stop-color="rgb(211,211,211)" stop-opacity="1"/></linearGradient><linearGradient id="UkAmpUJvQtPI" x1="2930.200002145767px" x2="1179.5000007152557px" y1="400px" y2="2216.6000050067905px" gradientUnits="userSpaceOnUse"><stop offset="0" stop-color="rgb(211,211,211)" stop-opacity="1"/><stop offset="1" stop-color="rgb(29,122,218)" stop-opacity="1"/></linearGradient><linearGradient id="xmpMMHHXsPkL" x1="3204.200002145767px" x2="2406.0000014305115px" y1="439px" y2="1017.4000014305116px" gradientUnits="userSpaceOnUse"><stop offset="0" stop-color="rgb(211,211,211)" stop-opacity="1"/><stop offset="1" stop-color="rgb(211,211,211)" stop-opacity="1"/></linearGradient><linearGradient id="EyxnDhEmvEfv" x1="3204.200002145767px" x2="1506.0000014305115px" y1="439px" y2="2441.100006437302px" gradientUnits="userSpaceOnUse"><stop offset="0" stop-color="rgb(211,211,211)" stop-opacity="1"/><stop offset="1" stop-color="rgb(29,122,218)" stop-opacity="1"/></linearGradient><linearGradient id="PMscXFOOuCkE" x1="2930.200002145767px" x2="1179.5000007152557px" y1="400px" y2="1817.600002861023px" gradientUnits="userSpaceOnUse"><stop offset="0" stop-color="rgb(211,211,211)" stop-opacity="1"/><stop offset="1" stop-color="rgb(29,122,218)" stop-opacity="1"/></linearGradient><linearGradient id="VggJELlQXkoJ" x1="2930.200002145767px" x2="576.5px" y1="400px" y2="2083.600004291535px" gradientUnits="userSpaceOnUse"><stop offset="0" stop-color="rgb(211,211,211)" stop-opacity="1"/><stop offset="1" stop-color="rgb(29,122,218)" stop-opacity="1"/></linearGradient><linearGradient id="CyfrFEdaEuxm" x1="2406.0000014305115px" x2="2406.0000014305115px" y1="767.2000007152558px" y2="1017.4000014305116px" gradientUnits="userSpaceOnUse"><stop offset="0" stop-color="rgb(211,211,211)" stop-opacity="1"/><stop offset="1" stop-color="rgb(211,211,211)" stop-opacity="1"/></linearGradient><linearGradient id="MoTCKXTFsCRS" x1="3204.200002145767px" x2="2406.0000014305115px" y1="767.2000007152558px" y2="1017.4000014305116px" gradientUnits="userSpaceOnUse"><stop offset="0" stop-color="rgb(211,211,211)" stop-opacity="1"/><stop offset="1" stop-color="rgb(211,211,211)" stop-opacity="1"/></linearGradient><linearGradient id="CAOrMACMMvZt" x1="1579.5000007152557px" x2="2132.0000014305115px" y1="566.0000014305115px" y2="1056.4000014305116px" gradientUnits="userSpaceOnUse"><stop offset="0" stop-color="rgb(255,193,7)" stop-opacity="1"/><stop offset="1" stop-color="rgb(211,211,211)" stop-opacity="1"/></linearGradient><linearGradient id="yKedTykKdRJT" x1="1579.5000007152557px" x2="2132.0000014305115px" y1="699.0000021457672px" y2="1056.4000014305116px" gradientUnits="userSpaceOnUse"><stop offset="0" stop-color="rgb(255,193,7)" stop-opacity="1"/><stop offset="1" stop-color="rgb(211,211,211)" stop-opacity="1"/></linearGradient><linearGradient id="rgBuNtUwtWqm" x1="1579.5000007152557px" x2="2132.0000014305115px" y1="832.000002861023px" y2="1056.4000014305116px" gradientUnits="userSpaceOnUse"><stop offset="0" stop-color="rgb(255,193,7)" stop-opacity="1"/><stop offset="1" stop-color="rgb(211,211,211)" stop-opacity="1"/></linearGradient><linearGradient id="FwzXoMkWWPkn" x1="1303.0000007152557px" x2="2406.0000014305115px" y1="341.5px" y2="1017.4000014305116px" gradientUnits="userSpaceOnUse"><stop offset="0" stop-color="rgb(255,193,7)" stop-opacity="1"/><stop offset="1" stop-color="rgb(211,211,211)" stop-opacity="1"/></linearGradient><linearGradient id="yonHWcgEIyhq" x1="1579.5000007152557px" x2="2132.0000014305115px" y1="433.00000071525574px" y2="1056.4000014305116px" gradientUnits="userSpaceOnUse"><stop offset="0" stop-color="rgb(255,193,7)" stop-opacity="1"/><stop offset="1" stop-color="rgb(211,211,211)" stop-opacity="1"/></linearGradient></defs><g transform="translate(30.450000000000003,4.75) scale(0.1,0.1)"><path fill="rgb(244,236,255)" stroke="rgb(255,255,255)" paint-order="fill stroke markers" d=" M 1768.3500010728835 -45.5 L 3831.200002145767 -45.5 L 3831.200002145767 -45.5 A 8 8 0 0 1 3839.200002145767 -37.5 L 3839.200002145767 3483.6000100135807 L 3839.200002145767 3483.6000100135807 A 8 8 0 0 1 3831.200002145767 3491.6000100135807 L -294.5 3491.6000100135807 L -294.5 3491.6000100135807 A 8 8 0 0 1 -302.5 3483.6000100135807 L -302.5 -37.5 L -302.5 -37.5 A 8 8 0 0 1 -294.5 -45.5 L 1768.3500010728835 -45.5 Z" fill-opacity="1" stroke-opacity="1" stroke-miterlimit="10" stroke-width="2"/><text fill="rgb(0,0,0)" stroke="none" font-family="Avenir, Helvetica, Arial, sans-serif" font-size="32px" font-style="normal" font-weight="bold" text-decoration="normal" x="1768.3500010728835" y="29.5" text-anchor="middle" dominant-baseline="text-after-edge" fill-opacity="1">.</text><path fill="rgb(255,255,255)" stroke="rgb(211,211,211)" paint-order="fill stroke markers" d=" M 1303.0000007152557 157.5 L 1672.5000007152557 157.5 L 1672.5000007152557 157.5 A 8 8 0 0 1 1680.5000007152557 165.5 L 1680.5000007152557 966.500002861023 L 1680.5000007152557 966.500002861023 A 8 8 0 0 1 1672.5000007152557 974.500002861023 L 933.5000007152557 974.500002861023 L 933.5000007152557 974.500002861023 A 8 8 0 0 1 925.5000007152557 966.500002861023 L 925.5000007152557 165.5 L 925.5000007152557 165.5 A 8 8 0 0 1 933.5000007152557 157.5 L 1303.0000007152557 157.5 Z" fill-opacity="1" stroke-opacity="1" stroke-miterlimit="10"/><text fill="rgb(0,0,0)" stroke="none" font-family="Avenir, Helvetica, Arial, sans-serif" font-size="32px" font-style="normal" font-weight="bold" text-decoration="normal" x="1303.0000007152557" y="232.5" text-anchor="middle" dominant-baseline="text-after-edge" fill-opacity="1">outputs.tf</text><path fill="rgb(255,255,255)" stroke="rgb(211,211,211)" paint-order="fill stroke markers" d=" M 992.5000007152557 1542.1000021457676 L 2078.0000014305115 1542.1000021457676 L 2078.0000014305115 1542.1000021457676 A 8 8 0 0 1 2086.0000014305115 1550.1000021457676 L 2086.0000014305115 3282.1000100135807 L 2086.0000014305115 3282.1000100135807 A 8 8 0 0 1 2078.0000014305115 3290.1000100135807 L -93 3290.1000100135807 L -93 3290.1000100135807 A 8 8 0 0 1 -101 3282.1000100135807 L -101 1550.1000021457676 L -101 1550.1000021457676 A 8 8 0 0 1 -93 1542.1000021457676 L 992.5000007152557 1542.1000021457676 Z" fill-opacity="1" stroke-opacity="1" stroke-miterlimit="10"/><text fill="rgb(0,0,0)" stroke="none" font-family="Avenir, Helvetica, Arial, sans-serif" font-size="32px" font-style="normal" font-weight="bold" text-decoration="normal" x="992.5000007152557" y="1617.1000021457676" text-anchor="middle" dominant-baseline="text-after-edge" fill-opacity="1">variables.tf</text><path fill="rgb(255,255,255)" stroke="rgb(211,211,211)" paint-order="fill stroke markers" d=" M 2745.6000017881393 156 L 3629.700002145767 156 L 3629.700002145767 156 A 8 8 0 0 1 3637.700002145767 164 L 3637.700002145767 1246.9000014305116 L 3637.700002145767 1246.9000014305116 A 8 8 0 0 1 3629.700002145767 1254.9000014305116 L 1861.5000014305115 1254.9000014305116 L 1861.5000014305115 1254.9000014305116 A 8 8 0 0 1 1853.5000014305115 1246.9000014305116 L 1853.5000014305115 164 L 1853.5000014305115 164 A 8 8 0 0 1 1861.5000014305115 156 L 2745.6000017881393 156 Z" fill-opacity="1" stroke-opacity="1" stroke-miterlimit="10"/><text fill="rgb(0,0,0)" stroke="none" font-family="Avenir, Helvetica, Arial, sans-serif" font-size="32px" font-style="normal" font-weight="bold" text-decoration="normal" x="2745.6000017881393" y="231" text-anchor="middle" dominant-baseline="text-after-edge" fill-opacity="1">main.tf</text><path fill="rgb(255,255,255)" stroke="rgb(211,211,211)" paint-order="fill stroke markers" d=" M 300 157.5 L 669.5 157.5 L 669.5 157.5 A 8 8 0 0 1 677.5 165.5 L 677.5 434.5 L 677.5 434.5 A 8 8 0 0 1 669.5 442.5 L -69.5 442.5 L -69.5 442.5 A 8 8 0 0 1 -77.5 434.5 L -77.5 165.5 L -77.5 165.5 A 8 8 0 0 1 -69.5 157.5 L 300 157.5 Z" fill-opacity="1" stroke-opacity="1" stroke-miterlimit="10"/><text fill="rgb(0,0,0)" stroke="none" font-family="Avenir, Helvetica, Arial, sans-serif" font-size="32px" font-style="normal" font-weight="bold" text-decoration="normal" x="300" y="232.5" text-anchor="middle" dominant-baseline="text-after-edge" fill-opacity="1">unknown file</text><path fill="rgb(255,255,255)" stroke="rgb(0,0,0)" paint-order="fill stroke markers" d=" M 2406.0000014305115 305 L 2728.0000014305115 305 L 2728.0000014305115 305 A 8 8 0 0 1 2736.0000014305115 313 L 2736.0000014305115 487 L 2736.0000014305115 487 A 8 8 0 0 1 2728.0000014305115 495 L 2084.0000014305115 495 L 2084.0000014305115 495 A 8 8 0 0 1 2076.0000014305115 487 L 2076.0000014305115 313 L 2076.0000014305115 313 A 8 8 0 0 1 2084.0000014305115 305 L 2406.0000014305115 305 Z" fill-opacity="1" stroke-opacity="1" stroke-miterlimit="10" stroke-width="5"/><rect fill="rgb(255,255,255)" stroke="none" x="2071.0000014305115" y="256" width="670" height="96" fill-opacity="1"/><text fill="rgb(0,0,0)" stroke="none" font-family="Avenir, Helvetica, Arial, sans-serif" font-size="32px" font-style="normal" font-weight="bold" text-decoration="normal" x="2406.0000014305115" y="320" text-anchor="middle" dominant-baseline="text-after-edge" fill-opacity="1">aws_s3_bucket_lifecycle_configuration</text><path fill="rgb(255,255,255)" stroke="rgb(0,0,0)" paint-order="fill stroke markers" d=" M 3204.200002145767 305 L 3526.200002145767 305 L 3526.200002145767 305 A 8 8 0 0 1 3534.200002145767 313 L 3534.200002145767 487 L 3534.200002145767 487 A 8 8 0 0 1 3526.200002145767 495 L 2882.200002145767 495 L 2882.200002145767 495 A 8 8 0 0 1 2874.200002145767 487 L 2874.200002145767 313 L 2874.200002145767 313 A 8 8 0 0 1 2882.200002145767 305 L 3204.200002145767 305 Z" fill-opacity="1" stroke-opacity="1" stroke-miterlimit="10" stroke-width="5"/><rect fill="rgb(255,255,255)" stroke="none" x="2892.700002145767" y="256" width="623" height="96" fill-opacity="1"/><text fill="rgb(0,0,0)" stroke="none" font-family="Avenir, Helvetica, Arial, sans-serif" font-size="32px" font-style="normal" font-weight="bold" text-decoration="normal" x="3204.200002145767" y="320" text-anchor="middle" dominant-baseline="text-after-edge" fill-opacity="1">aws_s3_bucket_public_access_block</text><path fill="rgb(255,255,255)" stroke="rgb(0,0,0)" paint-order="fill stroke markers" d=" M 2406.0000014305115 633.2000007152558 L 2728.0000014305115 633.2000007152558 L 2728.0000014305115 633.2000007152558 A 8 8 0 0 1 2736.0000014305115 641.2000007152558 L 2736.0000014305115 815.2000007152558 L 2736.0000014305115 815.2000007152558 A 8 8 0 0 1 2728.0000014305115 823.2000007152558 L 2084.0000014305115 823.2000007152558 L 2084.0000014305115 823.2000007152558 A 8 8 0 0 1 2076.0000014305115 815.2000007152558 L 2076.0000014305115 641.2000007152558 L 2076.0000014305115 641.2000007152558 A 8 8 0 0 1 2084.0000014305115 633.2000007152558 L 2406.0000014305115 633.2000007152558 Z" fill-opacity="1" stroke-opacity="1" stroke-miterlimit="10" stroke-width="5"/><rect fill="rgb(255,255,255)" stroke="none" x="1953.5000014305115" y="584.2000007152558" width="905" height="96" fill-opacity="1"/><text fill="rgb(0,0,0)" stroke="none" font-family="Avenir, Helvetica, Arial, sans-serif" font-size="32px" font-style="normal" font-weight="bold" text-decoration="normal" x="2406.0000014305115" y="648.2000007152558" text-anchor="middle" dominant-baseline="text-after-edge" fill-opacity="1">aws_s3_bucket_server_side_encryption_configuration</text><path fill="rgb(255,255,255)" stroke="rgb(0,0,0)" paint-order="fill stroke markers" d=" M 3204.200002145767 633.2000007152558 L 3526.200002145767 633.2000007152558 L 3526.200002145767 633.2000007152558 A 8 8 0 0 1 3534.200002145767 641.2000007152558 L 3534.200002145767 815.2000007152558 L 3534.200002145767 815.2000007152558 A 8 8 0 0 1 3526.200002145767 823.2000007152558 L 2882.200002145767 823.2000007152558 L 2882.200002145767 823.2000007152558 A 8 8 0 0 1 2874.200002145767 815.2000007152558 L 2874.200002145767 641.2000007152558 L 2874.200002145767 641.2000007152558 A 8 8 0 0 1 2882.200002145767 633.2000007152558 L 3204.200002145767 633.2000007152558 Z" fill-opacity="1" stroke-opacity="1" stroke-miterlimit="10" stroke-width="5"/><rect fill="rgb(255,255,255)" stroke="none" x="2965.700002145767" y="584.2000007152558" width="477" height="96" fill-opacity="1"/><text fill="rgb(0,0,0)" stroke="none" font-family="Avenir, Helvetica, Arial, sans-serif" font-size="32px" font-style="normal" font-weight="bold" text-decoration="normal" x="3204.200002145767" y="648.2000007152558" text-anchor="middle" dominant-baseline="text-after-edge" fill-opacity="1">aws_s3_bucket_versioning</text><path fill="rgb(255,255,255)" stroke="rgb(0,0,0)" paint-order="fill stroke markers" d=" M 2406.0000014305115 961.4000014305116 L 2728.0000014305115 961.4000014305116 L 2728.0000014305115 961.4000014305116 A 8 8 0 0 1 2736.0000014305115 969.4000014305116 L 2736.0000014305115 1143.4000014305116 L 2736.0000014305115 1143.4000014305116 A 8 8 0 0 1 2728.0000014305115 1151.4000014305116 L 2084.0000014305115 1151.4000014305116 L 2084.0000014305115 1151.4000014305116 A 8 8 0 0 1 2076.0000014305115 1143.4000014305116 L 2076.0000014305115 969.4000014305116 L 2076.0000014305115 969.4000014305116 A 8 8 0 0 1 2084.0000014305115 961.4000014305116 L 2406.0000014305115 961.4000014305116 Z" fill-opacity="1" stroke-opacity="1" stroke-miterlimit="10" stroke-width="5"/><rect fill="rgb(255,255,255)" stroke="none" x="2257.5000014305115" y="912.4000014305116" width="297" height="96" fill-opacity="1"/><text fill="rgb(0,0,0)" stroke="none" font-family="Avenir, Helvetica, Arial, sans-serif" font-size="32px" font-style="normal" font-weight="bold" text-decoration="normal" x="2406.0000014305115" y="976.4000014305116" text-anchor="middle" dominant-baseline="text-after-edge" fill-opacity="1">aws_s3_bucket</text><path fill="rgb(255,255,255)" stroke="rgb(0,0,0)" paint-order="fill stroke markers" d=" M 3204.200002145767 961.4000014305116 L 3526.200002145767 961.4000014305116 L 3526.200002145767 961.4000014305116 A 8 8 0 0 1 3534.200002145767 969.4000014305116 L 3534.200002145767 1143.4000014305116 L 3534.200002145767 1143.4000014305116 A 8 8 0 0 1 3526.200002145767 1151.4000014305116 L 2882.200002145767 1151.4000014305116 L 2882.200002145767 1151.4000014305116 A 8 8 0 0 1 2874.200002145767 1143.4000014305116 L 2874.200002145767 969.4000014305116 L 2874.200002145767 969.4000014305116 A 8 8 0 0 1 2882.200002145767 961.4000014305116 L 3204.200002145767 961.4000014305116 Z" fill-opacity="1" stroke-opacity="1" stroke-miterlimit="10" stroke-width="5"/><rect fill="rgb(255,255,255)" stroke="none" x="3026.200002145767" y="912.4000014305116" width="356" height="96" fill-opacity="1"/><text fill="rgb(0,0,0)" stroke="none" font-family="Avenir, Helvetica, Arial, sans-serif" font-size="32px" font-style="normal" font-weight="bold" text-decoration="normal" x="3204.200002145767" y="976.4000014305116" text-anchor="middle" dominant-baseline="text-after-edge" fill-opacity="1">aws_s3_bucket_acl</text><path fill="none" stroke="url(#SeyhPUPZLEvp)" paint-order="fill stroke markers" d=" M 2406.0000014305115 1095.4000014305116 L 2406.0000014305115 1568.7500028610232 L 1506.0000014305115 1568.7500028610232 L 1506.0000014305115 2042.1000042915348" stroke-linejoin="round" stroke-miterlimit="10" stroke-width="10"/><path fill="none" stroke="url(#XSlBWNVvPcDc)" paint-order="fill stroke markers" d=" M 2406.0000014305115 1095.4000014305116 L 2406.0000014305115 1901.2500046491625 L 903.0000007152557 1901.2500046491625 L 903.0000007152557 2707.1000078678135" stroke-linejoin="round" stroke-miterlimit="10" stroke-width="10"/><path fill="none" stroke="url(#CyyOsxmXXaTW)" paint-order="fill stroke markers" d=" M 2406.0000014305115 1095.4000014305116 L 2406.0000014305115 1834.7500042915347 L 903.0000007152557 1834.7500042915347 L 903.0000007152557 2574.1000071525577" stroke-linejoin="round" stroke-miterlimit="10" stroke-width="10"/><path fill="none" stroke="url(#LvqPtQnOfgav)" paint-order="fill stroke markers" d=" M 2132.0000014305115 1056.4000014305116 L 1354.2500007152557 1056.4000014305116 L 1354.2500007152557 300 L 576.5 300" stroke-linejoin="round" stroke-miterlimit="10" stroke-width="10"/><path fill="none" stroke="url(#cgOKuSWNBzJR)" paint-order="fill stroke markers" d=" M 2930.200002145767 1056.4000014305116 L 2805.1000017881393 1056.4000014305116 L 2805.1000017881393 1056.4000014305116 L 2680.0000014305115 1056.4000014305116" stroke-linejoin="round" stroke-miterlimit="10" stroke-width="10"/><path fill="none" stroke="url(#ayRpymQTWzTf)" paint-order="fill stroke markers" d=" M 2930.200002145767 1056.4000014305116 L 2356.3500017881393 1056.4000014305116 L 2356.3500017881393 2216.6000050067905 L 1782.5000014305115 2216.6000050067905" stroke-linejoin="round" stroke-miterlimit="10" stroke-width="10"/><path fill="none" stroke="url(#XuNXUPpvgLgE)" paint-order="fill stroke markers" d=" M 2406.0000014305115 439 L 2406.0000014305115 728.2000007152558 L 2406.0000014305115 728.2000007152558 L 2406.0000014305115 1017.4000014305116" stroke-linejoin="round" stroke-miterlimit="10" stroke-width="10"/><path fill="none" stroke="url(#UkAmpUJvQtPI)" paint-order="fill stroke markers" d=" M 2930.200002145767 400 L 2054.8500014305114 400 L 2054.8500014305114 2216.6000050067905 L 1179.5000007152557 2216.6000050067905" stroke-linejoin="round" stroke-miterlimit="10" stroke-width="10"/><path fill="none" stroke="url(#xmpMMHHXsPkL)" paint-order="fill stroke markers" d=" M 3204.200002145767 439 L 3204.200002145767 728.2000007152558 L 2406.0000014305115 728.2000007152558 L 2406.0000014305115 1017.4000014305116" stroke-linejoin="round" stroke-miterlimit="10" stroke-width="10"/><path fill="none" stroke="url(#EyxnDhEmvEfv)" paint-order="fill stroke markers" d=" M 3204.200002145767 439 L 3204.200002145767 1440.050003218651 L 1506.0000014305115 1440.050003218651 L 1506.0000014305115 2441.100006437302" stroke-linejoin="round" stroke-miterlimit="10" stroke-width="10"/><path fill="none" stroke="url(#PMscXFOOuCkE)" paint-order="fill stroke markers" d=" M 2930.200002145767 400 L 2054.8500014305114 400 L 2054.8500014305114 1817.600002861023 L 1179.5000007152557 1817.600002861023" stroke-linejoin="round" stroke-miterlimit="10" stroke-width="10"/><path fill="none" stroke="url(#VggJELlQXkoJ)" paint-order="fill stroke markers" d=" M 2930.200002145767 400 L 1753.3500010728835 400 L 1753.3500010728835 2083.600004291535 L 576.5 2083.600004291535" stroke-linejoin="round" stroke-miterlimit="10" stroke-width="10"/><path fill="none" stroke="url(#CyfrFEdaEuxm)" paint-order="fill stroke markers" d=" M 2406.0000014305115 767.2000007152558 L 2406.0000014305115 892.3000010728837 L 2406.0000014305115 892.3000010728837 L 2406.0000014305115 1017.4000014305116" stroke-linejoin="round" stroke-miterlimit="10" stroke-width="10"/><path fill="none" stroke="url(#MoTCKXTFsCRS)" paint-order="fill stroke markers" d=" M 3204.200002145767 767.2000007152558 L 3204.200002145767 892.3000010728837 L 2406.0000014305115 892.3000010728837 L 2406.0000014305115 1017.4000014305116" stroke-linejoin="round" stroke-miterlimit="10" stroke-width="10"/><path fill="none" stroke="url(#CAOrMACMMvZt)" paint-order="fill stroke markers" d=" M 1579.5000007152557 566.0000014305115 L 1855.7500010728836 566.0000014305115 L 1855.7500010728836 1056.4000014305116 L 2132.0000014305115 1056.4000014305116" stroke-linejoin="round" stroke-miterlimit="10" stroke-width="10"/><path fill="none" stroke="url(#yKedTykKdRJT)" paint-order="fill stroke markers" d=" M 1579.5000007152557 699.0000021457672 L 1855.7500010728836 699.0000021457672 L 1855.7500010728836 1056.4000014305116 L 2132.0000014305115 1056.4000014305116" stroke-linejoin="round" stroke-miterlimit="10" stroke-width="10"/><path fill="none" stroke="url(#rgBuNtUwtWqm)" paint-order="fill stroke markers" d=" M 1579.5000007152557 832.000002861023 L 1855.7500010728836 832.000002861023 L 1855.7500010728836 1056.4000014305116 L 2132.0000014305115 1056.4000014305116" stroke-linejoin="round" stroke-miterlimit="10" stroke-width="10"/><path fill="none" stroke="url(#FwzXoMkWWPkn)" paint-order="fill stroke markers" d=" M 1303.0000007152557 341.5 L 1303.0000007152557 679.4500007152558 L 2406.0000014305115 679.4500007152558 L 2406.0000014305115 1017.4000014305116" stroke-linejoin="round" stroke-miterlimit="10" stroke-width="10"/><path fill="none" stroke="url(#yonHWcgEIyhq)" paint-order="fill stroke markers" d=" M 1579.5000007152557 433.00000071525574 L 1855.7500010728836 433.00000071525574 L 1855.7500010728836 1056.4000014305116 L 2132.0000014305115 1056.4000014305116" stroke-linejoin="round" stroke-miterlimit="10" stroke-width="10"/><path fill="rgb(255,247,224)" stroke="rgb(255,193,7)" paint-order="fill stroke markers" d=" M 1303.0000007152557 261 L 1569.0000007152557 261 L 1569.0000007152557 261 A 8 8 0 0 1 1577.0000007152557 269 L 1577.0000007152557 331 L 1577.0000007152557 331 A 8 8 0 0 1 1569.0000007152557 339 L 1037.0000007152557 339 L 1037.0000007152557 339 A 8 8 0 0 1 1029.0000007152557 331 L 1029.0000007152557 269 L 1029.0000007152557 269 A 8 8 0 0 1 1037.0000007152557 261 L 1303.0000007152557 261 Z" fill-opacity="1" stroke-opacity="1" stroke-miterlimit="10" stroke-width="5"/><text fill="rgb(0,0,0)" stroke="none" font-family="Avenir, Helvetica, Arial, sans-serif" font-size="32px" font-style="normal" font-weight="bold" text-decoration="normal" x="1303.0000007152557" y="316" text-anchor="middle" dominant-baseline="text-after-edge" fill-opacity="1">s3_bucket_id</text><path fill="rgb(255,247,224)" stroke="rgb(255,193,7)" paint-order="fill stroke markers" d=" M 1303.0000007152557 394.00000071525574 L 1569.0000007152557 394.00000071525574 L 1569.0000007152557 394.00000071525574 A 8 8 0 0 1 1577.0000007152557 402.00000071525574 L 1577.0000007152557 464.00000071525574 L 1577.0000007152557 464.00000071525574 A 8 8 0 0 1 1569.0000007152557 472.00000071525574 L 1037.0000007152557 472.00000071525574 L 1037.0000007152557 472.00000071525574 A 8 8 0 0 1 1029.0000007152557 464.00000071525574 L 1029.0000007152557 402.00000071525574 L 1029.0000007152557 402.00000071525574 A 8 8 0 0 1 1037.0000007152557 394.00000071525574 L 1303.0000007152557 394.00000071525574 Z" fill-opacity="1" stroke-opacity="1" stroke-miterlimit="10" stroke-width="5"/><text fill="rgb(0,0,0)" stroke="none" font-family="Avenir, Helvetica, Arial, sans-serif" font-size="32px" font-style="normal" font-weight="bold" text-decoration="normal" x="1303.0000007152557" y="449.00000071525574" text-anchor="middle" dominant-baseline="text-after-edge" fill-opacity="1">s3_bucket_arn</text><path fill="rgb(255,247,224)" stroke="rgb(255,193,7)" paint-order="fill stroke markers" d=" M 1303.0000007152557 527.0000014305115 L 1569.0000007152557 527.0000014305115 L 1569.0000007152557 527.0000014305115 A 8 8 0 0 1 1577.0000007152557 535.0000014305115 L 1577.0000007152557 597.0000014305115 L 1577.0000007152557 597.0000014305115 A 8 8 0 0 1 1569.0000007152557 605.0000014305115 L 1037.0000007152557 605.0000014305115 L 1037.0000007152557 605.0000014305115 A 8 8 0 0 1 1029.0000007152557 597.0000014305115 L 1029.0000007152557 535.0000014305115 L 1029.0000007152557 535.0000014305115 A 8 8 0 0 1 1037.0000007152557 527.0000014305115 L 1303.0000007152557 527.0000014305115 Z" fill-opacity="1" stroke-opacity="1" stroke-miterlimit="10" stroke-width="5"/><text fill="rgb(0,0,0)" stroke="none" font-family="Avenir, Helvetica, Arial, sans-serif" font-size="32px" font-style="normal" font-weight="bold" text-decoration="normal" x="1303.0000007152557" y="582.0000014305115" text-anchor="middle" dominant-baseline="text-after-edge" fill-opacity="1">s3_bucket_region</text><path fill="rgb(255,247,224)" stroke="rgb(255,193,7)" paint-order="fill stroke markers" d=" M 1303.0000007152557 660.0000021457672 L 1569.0000007152557 660.0000021457672 L 1569.0000007152557 660.0000021457672 A 8 8 0 0 1 1577.0000007152557 668.0000021457672 L 1577.0000007152557 730.0000021457672 L 1577.0000007152557 730.0000021457672 A 8 8 0 0 1 1569.0000007152557 738.0000021457672 L 1037.0000007152557 738.0000021457672 L 1037.0000007152557 738.0000021457672 A 8 8 0 0 1 1029.0000007152557 730.0000021457672 L 1029.0000007152557 668.0000021457672 L 1029.0000007152557 668.0000021457672 A 8 8 0 0 1 1037.0000007152557 660.0000021457672 L 1303.0000007152557 660.0000021457672 Z" fill-opacity="1" stroke-opacity="1" stroke-miterlimit="10" stroke-width="5"/><text fill="rgb(0,0,0)" stroke="none" font-family="Avenir, Helvetica, Arial, sans-serif" font-size="32px" font-style="normal" font-weight="bold" text-decoration="normal" x="1303.0000007152557" y="715.0000021457672" text-anchor="middle" dominant-baseline="text-after-edge" fill-opacity="1">s3_bucket_domain_name</text><path fill="rgb(255,247,224)" stroke="rgb(255,193,7)" paint-order="fill stroke markers" d=" M 1303.0000007152557 793.000002861023 L 1569.0000007152557 793.000002861023 L 1569.0000007152557 793.000002861023 A 8 8 0 0 1 1577.0000007152557 801.000002861023 L 1577.0000007152557 863.000002861023 L 1577.0000007152557 863.000002861023 A 8 8 0 0 1 1569.0000007152557 871.000002861023 L 1037.0000007152557 871.000002861023 L 1037.0000007152557 871.000002861023 A 8 8 0 0 1 1029.0000007152557 863.000002861023 L 1029.0000007152557 801.000002861023 L 1029.0000007152557 801.000002861023 A 8 8 0 0 1 1037.0000007152557 793.000002861023 L 1303.0000007152557 793.000002861023 Z" fill-opacity="1" stroke-opacity="1" stroke-miterlimit="10" stroke-width="5"/><text fill="rgb(0,0,0)" stroke="none" font-family="Avenir, Helvetica, Arial, sans-serif" font-size="32px" font-style="normal" font-weight="bold" text-decoration="normal" x="1303.0000007152557" y="848.000002861023" text-anchor="middle" dominant-baseline="text-after-edge" fill-opacity="1">s3_bucket_regional_domain_name</text><path fill="rgb(225,240,255)" stroke="rgb(29,122,218)" paint-order="fill stroke markers" d=" M 300 1645.6000021457673 L 566 1645.6000021457673 L 566 1645.6000021457673 A 8 8 0 0 1 574 1653.6000021457673 L 574 1715.6000021457673 L 574 1715.6000021457673 A 8 8 0 0 1 566 1723.6000021457673 L 34 1723.6000021457673 L 34 1723.6000021457673 A 8 8 0 0 1 26 1715.6000021457673 L 26 1653.6000021457673 L 26 1653.6000021457673 A 8 8 0 0 1 34 1645.6000021457673 L 300 1645.6000021457673 Z" fill-opacity="1" stroke-opacity="1" stroke-miterlimit="10" stroke-width="5"/><text fill="rgb(0,0,0)" stroke="none" font-family="Avenir, Helvetica, Arial, sans-serif" font-size="32px" font-style="normal" font-weight="bold" text-decoration="normal" x="300" y="1700.6000021457673" text-anchor="middle" dominant-baseline="text-after-edge" fill-opacity="1">bucket_policy</text><path fill="rgb(225,240,255)" stroke="rgb(29,122,218)" paint-order="fill stroke markers" d=" M 903.0000007152557 1645.6000021457673 L 1169.0000007152557 1645.6000021457673 L 1169.0000007152557 1645.6000021457673 A 8 8 0 0 1 1177.0000007152557 1653.6000021457673 L 1177.0000007152557 1715.6000021457673 L 1177.0000007152557 1715.6000021457673 A 8 8 0 0 1 1169.0000007152557 1723.6000021457673 L 637.0000007152557 1723.6000021457673 L 637.0000007152557 1723.6000021457673 A 8 8 0 0 1 629.0000007152557 1715.6000021457673 L 629.0000007152557 1653.6000021457673 L 629.0000007152557 1653.6000021457673 A 8 8 0 0 1 637.0000007152557 1645.6000021457673 L 903.0000007152557 1645.6000021457673 Z" fill-opacity="1" stroke-opacity="1" stroke-miterlimit="10" stroke-width="5"/><text fill="rgb(0,0,0)" stroke="none" font-family="Avenir, Helvetica, Arial, sans-serif" font-size="32px" font-style="normal" font-weight="bold" text-decoration="normal" x="903.0000007152557" y="1700.6000021457673" text-anchor="middle" dominant-baseline="text-after-edge" fill-opacity="1">current_soft_transition_days</text><path fill="rgb(225,240,255)" stroke="rgb(29,122,218)" paint-order="fill stroke markers" d=" M 1506.0000014305115 1645.6000021457673 L 1772.0000014305115 1645.6000021457673 L 1772.0000014305115 1645.6000021457673 A 8 8 0 0 1 1780.0000014305115 1653.6000021457673 L 1780.0000014305115 1715.6000021457673 L 1780.0000014305115 1715.6000021457673 A 8 8 0 0 1 1772.0000014305115 1723.6000021457673 L 1240.0000014305115 1723.6000021457673 L 1240.0000014305115 1723.6000021457673 A 8 8 0 0 1 1232.0000014305115 1715.6000021457673 L 1232.0000014305115 1653.6000021457673 L 1232.0000014305115 1653.6000021457673 A 8 8 0 0 1 1240.0000014305115 1645.6000021457673 L 1506.0000014305115 1645.6000021457673 Z" fill-opacity="1" stroke-opacity="1" stroke-miterlimit="10" stroke-width="5"/><text fill="rgb(0,0,0)" stroke="none" font-family="Avenir, Helvetica, Arial, sans-serif" font-size="32px" font-style="normal" font-weight="bold" text-decoration="normal" x="1506.0000014305115" y="1700.6000021457673" text-anchor="middle" dominant-baseline="text-after-edge" fill-opacity="1">target_bucket</text><path fill="rgb(225,240,255)" stroke="rgb(29,122,218)" paint-order="fill stroke markers" d=" M 300 1778.600002861023 L 566 1778.600002861023 L 566 1778.600002861023 A 8 8 0 0 1 574 1786.600002861023 L 574 1848.600002861023 L 574 1848.600002861023 A 8 8 0 0 1 566 1856.600002861023 L 34 1856.600002861023 L 34 1856.600002861023 A 8 8 0 0 1 26 1848.600002861023 L 26 1786.600002861023 L 26 1786.600002861023 A 8 8 0 0 1 34 1778.600002861023 L 300 1778.600002861023 Z" fill-opacity="1" stroke-opacity="1" stroke-miterlimit="10" stroke-width="5"/><text fill="rgb(0,0,0)" stroke="none" font-family="Avenir, Helvetica, Arial, sans-serif" font-size="32px" font-style="normal" font-weight="bold" text-decoration="normal" x="300" y="1833.600002861023" text-anchor="middle" dominant-baseline="text-after-edge" fill-opacity="1">sse_algorithm</text><path fill="rgb(225,240,255)" stroke="rgb(29,122,218)" paint-order="fill stroke markers" d=" M 903.0000007152557 1778.600002861023 L 1169.0000007152557 1778.600002861023 L 1169.0000007152557 1778.600002861023 A 8 8 0 0 1 1177.0000007152557 1786.600002861023 L 1177.0000007152557 1848.600002861023 L 1177.0000007152557 1848.600002861023 A 8 8 0 0 1 1169.0000007152557 1856.600002861023 L 637.0000007152557 1856.600002861023 L 637.0000007152557 1856.600002861023 A 8 8 0 0 1 629.0000007152557 1848.600002861023 L 629.0000007152557 1786.600002861023 L 629.0000007152557 1786.600002861023 A 8 8 0 0 1 637.0000007152557 1778.600002861023 L 903.0000007152557 1778.600002861023 Z" fill-opacity="1" stroke-opacity="1" stroke-miterlimit="10" stroke-width="5"/><text fill="rgb(0,0,0)" stroke="none" font-family="Avenir, Helvetica, Arial, sans-serif" font-size="32px" font-style="normal" font-weight="bold" text-decoration="normal" x="903.0000007152557" y="1833.600002861023" text-anchor="middle" dominant-baseline="text-after-edge" fill-opacity="1">restrict_public_buckets</text><path fill="rgb(225,240,255)" stroke="rgb(29,122,218)" paint-order="fill stroke markers" d=" M 1506.0000014305115 1778.600002861023 L 1772.0000014305115 1778.600002861023 L 1772.0000014305115 1778.600002861023 A 8 8 0 0 1 1780.0000014305115 1786.600002861023 L 1780.0000014305115 1848.600002861023 L 1780.0000014305115 1848.600002861023 A 8 8 0 0 1 1772.0000014305115 1856.600002861023 L 1240.0000014305115 1856.600002861023 L 1240.0000014305115 1856.600002861023 A 8 8 0 0 1 1232.0000014305115 1848.600002861023 L 1232.0000014305115 1786.600002861023 L 1232.0000014305115 1786.600002861023 A 8 8 0 0 1 1240.0000014305115 1778.600002861023 L 1506.0000014305115 1778.600002861023 Z" fill-opacity="1" stroke-opacity="1" stroke-miterlimit="10" stroke-width="5"/><text fill="rgb(0,0,0)" stroke="none" font-family="Avenir, Helvetica, Arial, sans-serif" font-size="32px" font-style="normal" font-weight="bold" text-decoration="normal" x="1506.0000014305115" y="1833.600002861023" text-anchor="middle" dominant-baseline="text-after-edge" fill-opacity="1">current_soft_prefix</text><path fill="rgb(225,240,255)" stroke="rgb(29,122,218)" paint-order="fill stroke markers" d=" M 300 3108.6000100135807 L 566 3108.6000100135807 L 566 3108.6000100135807 A 8 8 0 0 1 574 3116.6000100135807 L 574 3178.6000100135807 L 574 3178.6000100135807 A 8 8 0 0 1 566 3186.6000100135807 L 34 3186.6000100135807 L 34 3186.6000100135807 A 8 8 0 0 1 26 3178.6000100135807 L 26 3116.6000100135807 L 26 3116.6000100135807 A 8 8 0 0 1 34 3108.6000100135807 L 300 3108.6000100135807 Z" fill-opacity="1" stroke-opacity="1" stroke-miterlimit="10" stroke-width="5"/><text fill="rgb(0,0,0)" stroke="none" font-family="Avenir, Helvetica, Arial, sans-serif" font-size="32px" font-style="normal" font-weight="bold" text-decoration="normal" x="300" y="3163.6000100135807" text-anchor="middle" dominant-baseline="text-after-edge" fill-opacity="1">current_hard_transition_storage_class</text><path fill="rgb(225,240,255)" stroke="rgb(29,122,218)" paint-order="fill stroke markers" d=" M 300 1911.6000035762788 L 566 1911.6000035762788 L 566 1911.6000035762788 A 8 8 0 0 1 574 1919.6000035762788 L 574 1981.6000035762788 L 574 1981.6000035762788 A 8 8 0 0 1 566 1989.6000035762788 L 34 1989.6000035762788 L 34 1989.6000035762788 A 8 8 0 0 1 26 1981.6000035762788 L 26 1919.6000035762788 L 26 1919.6000035762788 A 8 8 0 0 1 34 1911.6000035762788 L 300 1911.6000035762788 Z" fill-opacity="1" stroke-opacity="1" stroke-miterlimit="10" stroke-width="5"/><text fill="rgb(0,0,0)" stroke="none" font-family="Avenir, Helvetica, Arial, sans-serif" font-size="32px" font-style="normal" font-weight="bold" text-decoration="normal" x="300" y="1966.6000035762788" text-anchor="middle" dominant-baseline="text-after-edge" fill-opacity="1">versioning_enabled</text><path fill="rgb(225,240,255)" stroke="rgb(29,122,218)" paint-order="fill stroke markers" d=" M 903.0000007152557 1911.6000035762788 L 1169.0000007152557 1911.6000035762788 L 1169.0000007152557 1911.6000035762788 A 8 8 0 0 1 1177.0000007152557 1919.6000035762788 L 1177.0000007152557 1981.6000035762788 L 1177.0000007152557 1981.6000035762788 A 8 8 0 0 1 1169.0000007152557 1989.6000035762788 L 637.0000007152557 1989.6000035762788 L 637.0000007152557 1989.6000035762788 A 8 8 0 0 1 629.0000007152557 1981.6000035762788 L 629.0000007152557 1919.6000035762788 L 629.0000007152557 1919.6000035762788 A 8 8 0 0 1 637.0000007152557 1911.6000035762788 L 903.0000007152557 1911.6000035762788 Z" fill-opacity="1" stroke-opacity="1" stroke-miterlimit="10" stroke-width="5"/><text fill="rgb(0,0,0)" stroke="none" font-family="Avenir, Helvetica, Arial, sans-serif" font-size="32px" font-style="normal" font-weight="bold" text-decoration="normal" x="903.0000007152557" y="1966.6000035762788" text-anchor="middle" dominant-baseline="text-after-edge" fill-opacity="1">noncurrent_soft_prefix</text><path fill="rgb(225,240,255)" stroke="rgb(29,122,218)" paint-order="fill stroke markers" d=" M 1506.0000014305115 1911.6000035762788 L 1772.0000014305115 1911.6000035762788 L 1772.0000014305115 1911.6000035762788 A 8 8 0 0 1 1780.0000014305115 1919.6000035762788 L 1780.0000014305115 1981.6000035762788 L 1780.0000014305115 1981.6000035762788 A 8 8 0 0 1 1772.0000014305115 1989.6000035762788 L 1240.0000014305115 1989.6000035762788 L 1240.0000014305115 1989.6000035762788 A 8 8 0 0 1 1232.0000014305115 1981.6000035762788 L 1232.0000014305115 1919.6000035762788 L 1232.0000014305115 1919.6000035762788 A 8 8 0 0 1 1240.0000014305115 1911.6000035762788 L 1506.0000014305115 1911.6000035762788 Z" fill-opacity="1" stroke-opacity="1" stroke-miterlimit="10" stroke-width="5"/><text fill="rgb(0,0,0)" stroke="none" font-family="Avenir, Helvetica, Arial, sans-serif" font-size="32px" font-style="normal" font-weight="bold" text-decoration="normal" x="1506.0000014305115" y="1966.6000035762788" text-anchor="middle" dominant-baseline="text-after-edge" fill-opacity="1">current_expiration_prefix</text><path fill="rgb(225,240,255)" stroke="rgb(29,122,218)" paint-order="fill stroke markers" d=" M 952.0000007152557 3108.6000100135807 L 1218.0000007152557 3108.6000100135807 L 1218.0000007152557 3108.6000100135807 A 8 8 0 0 1 1226.0000007152557 3116.6000100135807 L 1226.0000007152557 3178.6000100135807 L 1226.0000007152557 3178.6000100135807 A 8 8 0 0 1 1218.0000007152557 3186.6000100135807 L 686.0000007152557 3186.6000100135807 L 686.0000007152557 3186.6000100135807 A 8 8 0 0 1 678.0000007152557 3178.6000100135807 L 678.0000007152557 3116.6000100135807 L 678.0000007152557 3116.6000100135807 A 8 8 0 0 1 686.0000007152557 3108.6000100135807 L 952.0000007152557 3108.6000100135807 Z" fill-opacity="1" stroke-opacity="1" stroke-miterlimit="10" stroke-width="5"/><text fill="rgb(0,0,0)" stroke="none" font-family="Avenir, Helvetica, Arial, sans-serif" font-size="32px" font-style="normal" font-weight="bold" text-decoration="normal" x="952.0000007152557" y="3163.6000100135807" text-anchor="middle" dominant-baseline="text-after-edge" fill-opacity="1">noncurrent_soft_transition_storage_class</text><path fill="rgb(225,240,255)" stroke="rgb(29,122,218)" paint-order="fill stroke markers" d=" M 300 2044.6000042915348 L 566 2044.6000042915348 L 566 2044.6000042915348 A 8 8 0 0 1 574 2052.600004291535 L 574 2114.600004291535 L 574 2114.600004291535 A 8 8 0 0 1 566 2122.600004291535 L 34 2122.600004291535 L 34 2122.600004291535 A 8 8 0 0 1 26 2114.600004291535 L 26 2052.600004291535 L 26 2052.600004291535 A 8 8 0 0 1 34 2044.6000042915348 L 300 2044.6000042915348 Z" fill-opacity="1" stroke-opacity="1" stroke-miterlimit="10" stroke-width="5"/><text fill="rgb(0,0,0)" stroke="none" font-family="Avenir, Helvetica, Arial, sans-serif" font-size="32px" font-style="normal" font-weight="bold" text-decoration="normal" x="300" y="2099.600004291535" text-anchor="middle" dominant-baseline="text-after-edge" fill-opacity="1">block_public_acls</text><path fill="rgb(225,240,255)" stroke="rgb(29,122,218)" paint-order="fill stroke markers" d=" M 903.0000007152557 2044.6000042915348 L 1169.0000007152557 2044.6000042915348 L 1169.0000007152557 2044.6000042915348 A 8 8 0 0 1 1177.0000007152557 2052.600004291535 L 1177.0000007152557 2114.600004291535 L 1177.0000007152557 2114.600004291535 A 8 8 0 0 1 1169.0000007152557 2122.600004291535 L 637.0000007152557 2122.600004291535 L 637.0000007152557 2122.600004291535 A 8 8 0 0 1 629.0000007152557 2114.600004291535 L 629.0000007152557 2052.600004291535 L 629.0000007152557 2052.600004291535 A 8 8 0 0 1 637.0000007152557 2044.6000042915348 L 903.0000007152557 2044.6000042915348 Z" fill-opacity="1" stroke-opacity="1" stroke-miterlimit="10" stroke-width="5"/><text fill="rgb(0,0,0)" stroke="none" font-family="Avenir, Helvetica, Arial, sans-serif" font-size="32px" font-style="normal" font-weight="bold" text-decoration="normal" x="903.0000007152557" y="2099.600004291535" text-anchor="middle" dominant-baseline="text-after-edge" fill-opacity="1">noncurrent_expiration_enabled</text><path fill="rgb(225,240,255)" stroke="rgb(29,122,218)" paint-order="fill stroke markers" d=" M 1506.0000014305115 2044.6000042915348 L 1772.0000014305115 2044.6000042915348 L 1772.0000014305115 2044.6000042915348 A 8 8 0 0 1 1780.0000014305115 2052.600004291535 L 1780.0000014305115 2114.600004291535 L 1780.0000014305115 2114.600004291535 A 8 8 0 0 1 1772.0000014305115 2122.600004291535 L 1240.0000014305115 2122.600004291535 L 1240.0000014305115 2122.600004291535 A 8 8 0 0 1 1232.0000014305115 2114.600004291535 L 1232.0000014305115 2052.600004291535 L 1232.0000014305115 2052.600004291535 A 8 8 0 0 1 1240.0000014305115 2044.6000042915348 L 1506.0000014305115 2044.6000042915348 Z" fill-opacity="1" stroke-opacity="1" stroke-miterlimit="10" stroke-width="5"/><text fill="rgb(0,0,0)" stroke="none" font-family="Avenir, Helvetica, Arial, sans-serif" font-size="32px" font-style="normal" font-weight="bold" text-decoration="normal" x="1506.0000014305115" y="2099.600004291535" text-anchor="middle" dominant-baseline="text-after-edge" fill-opacity="1">name</text><path fill="rgb(225,240,255)" stroke="rgb(29,122,218)" paint-order="fill stroke markers" d=" M 300 2177.6000050067905 L 566 2177.6000050067905 L 566 2177.6000050067905 A 8 8 0 0 1 574 2185.6000050067905 L 574 2247.6000050067905 L 574 2247.6000050067905 A 8 8 0 0 1 566 2255.6000050067905 L 34 2255.6000050067905 L 34 2255.6000050067905 A 8 8 0 0 1 26 2247.6000050067905 L 26 2185.6000050067905 L 26 2185.6000050067905 A 8 8 0 0 1 34 2177.6000050067905 L 300 2177.6000050067905 Z" fill-opacity="1" stroke-opacity="1" stroke-miterlimit="10" stroke-width="5"/><text fill="rgb(0,0,0)" stroke="none" font-family="Avenir, Helvetica, Arial, sans-serif" font-size="32px" font-style="normal" font-weight="bold" text-decoration="normal" x="300" y="2232.6000050067905" text-anchor="middle" dominant-baseline="text-after-edge" fill-opacity="1">target_prefix</text><path fill="rgb(225,240,255)" stroke="rgb(29,122,218)" paint-order="fill stroke markers" d=" M 903.0000007152557 2177.6000050067905 L 1169.0000007152557 2177.6000050067905 L 1169.0000007152557 2177.6000050067905 A 8 8 0 0 1 1177.0000007152557 2185.6000050067905 L 1177.0000007152557 2247.6000050067905 L 1177.0000007152557 2247.6000050067905 A 8 8 0 0 1 1169.0000007152557 2255.6000050067905 L 637.0000007152557 2255.6000050067905 L 637.0000007152557 2255.6000050067905 A 8 8 0 0 1 629.0000007152557 2247.6000050067905 L 629.0000007152557 2185.6000050067905 L 629.0000007152557 2185.6000050067905 A 8 8 0 0 1 637.0000007152557 2177.6000050067905 L 903.0000007152557 2177.6000050067905 Z" fill-opacity="1" stroke-opacity="1" stroke-miterlimit="10" stroke-width="5"/><text fill="rgb(0,0,0)" stroke="none" font-family="Avenir, Helvetica, Arial, sans-serif" font-size="32px" font-style="normal" font-weight="bold" text-decoration="normal" x="903.0000007152557" y="2232.6000050067905" text-anchor="middle" dominant-baseline="text-after-edge" fill-opacity="1">block_public_policy</text><path fill="rgb(225,240,255)" stroke="rgb(29,122,218)" paint-order="fill stroke markers" d=" M 1506.0000014305115 2177.6000050067905 L 1772.0000014305115 2177.6000050067905 L 1772.0000014305115 2177.6000050067905 A 8 8 0 0 1 1780.0000014305115 2185.6000050067905 L 1780.0000014305115 2247.6000050067905 L 1780.0000014305115 2247.6000050067905 A 8 8 0 0 1 1772.0000014305115 2255.6000050067905 L 1240.0000014305115 2255.6000050067905 L 1240.0000014305115 2255.6000050067905 A 8 8 0 0 1 1232.0000014305115 2247.6000050067905 L 1232.0000014305115 2185.6000050067905 L 1232.0000014305115 2185.6000050067905 A 8 8 0 0 1 1240.0000014305115 2177.6000050067905 L 1506.0000014305115 2177.6000050067905 Z" fill-opacity="1" stroke-opacity="1" stroke-miterlimit="10" stroke-width="5"/><text fill="rgb(0,0,0)" stroke="none" font-family="Avenir, Helvetica, Arial, sans-serif" font-size="32px" font-style="normal" font-weight="bold" text-decoration="normal" x="1506.0000014305115" y="2232.6000050067905" text-anchor="middle" dominant-baseline="text-after-edge" fill-opacity="1">bucket_acl</text><path fill="rgb(225,240,255)" stroke="rgb(29,122,218)" paint-order="fill stroke markers" d=" M 300 2310.6000057220463 L 566 2310.6000057220463 L 566 2310.6000057220463 A 8 8 0 0 1 574 2318.6000057220463 L 574 2380.6000057220463 L 574 2380.6000057220463 A 8 8 0 0 1 566 2388.6000057220463 L 34 2388.6000057220463 L 34 2388.6000057220463 A 8 8 0 0 1 26 2380.6000057220463 L 26 2318.6000057220463 L 26 2318.6000057220463 A 8 8 0 0 1 34 2310.6000057220463 L 300 2310.6000057220463 Z" fill-opacity="1" stroke-opacity="1" stroke-miterlimit="10" stroke-width="5"/><text fill="rgb(0,0,0)" stroke="none" font-family="Avenir, Helvetica, Arial, sans-serif" font-size="32px" font-style="normal" font-weight="bold" text-decoration="normal" x="300" y="2365.6000057220463" text-anchor="middle" dominant-baseline="text-after-edge" fill-opacity="1">current_expiration_enabled</text><path fill="rgb(225,240,255)" stroke="rgb(29,122,218)" paint-order="fill stroke markers" d=" M 903.0000007152557 2310.6000057220463 L 1169.0000007152557 2310.6000057220463 L 1169.0000007152557 2310.6000057220463 A 8 8 0 0 1 1177.0000007152557 2318.6000057220463 L 1177.0000007152557 2380.6000057220463 L 1177.0000007152557 2380.6000057220463 A 8 8 0 0 1 1169.0000007152557 2388.6000057220463 L 637.0000007152557 2388.6000057220463 L 637.0000007152557 2388.6000057220463 A 8 8 0 0 1 629.0000007152557 2380.6000057220463 L 629.0000007152557 2318.6000057220463 L 629.0000007152557 2318.6000057220463 A 8 8 0 0 1 637.0000007152557 2310.6000057220463 L 903.0000007152557 2310.6000057220463 Z" fill-opacity="1" stroke-opacity="1" stroke-miterlimit="10" stroke-width="5"/><text fill="rgb(0,0,0)" stroke="none" font-family="Avenir, Helvetica, Arial, sans-serif" font-size="32px" font-style="normal" font-weight="bold" text-decoration="normal" x="903.0000007152557" y="2365.6000057220463" text-anchor="middle" dominant-baseline="text-after-edge" fill-opacity="1">noncurrent_soft_transition_days</text><path fill="rgb(225,240,255)" stroke="rgb(29,122,218)" paint-order="fill stroke markers" d=" M 1506.0000014305115 2310.6000057220463 L 1772.0000014305115 2310.6000057220463 L 1772.0000014305115 2310.6000057220463 A 8 8 0 0 1 1780.0000014305115 2318.6000057220463 L 1780.0000014305115 2380.6000057220463 L 1780.0000014305115 2380.6000057220463 A 8 8 0 0 1 1772.0000014305115 2388.6000057220463 L 1240.0000014305115 2388.6000057220463 L 1240.0000014305115 2388.6000057220463 A 8 8 0 0 1 1232.0000014305115 2380.6000057220463 L 1232.0000014305115 2318.6000057220463 L 1232.0000014305115 2318.6000057220463 A 8 8 0 0 1 1240.0000014305115 2310.6000057220463 L 1506.0000014305115 2310.6000057220463 Z" fill-opacity="1" stroke-opacity="1" stroke-miterlimit="10" stroke-width="5"/><text fill="rgb(0,0,0)" stroke="none" font-family="Avenir, Helvetica, Arial, sans-serif" font-size="32px" font-style="normal" font-weight="bold" text-decoration="normal" x="1506.0000014305115" y="2365.6000057220463" text-anchor="middle" dominant-baseline="text-after-edge" fill-opacity="1">noncurrent_soft_rule_enabled</text><path fill="rgb(225,240,255)" stroke="rgb(29,122,218)" paint-order="fill stroke markers" d=" M 300 2443.600006437302 L 566 2443.600006437302 L 566 2443.600006437302 A 8 8 0 0 1 574 2451.600006437302 L 574 2513.600006437302 L 574 2513.600006437302 A 8 8 0 0 1 566 2521.600006437302 L 34 2521.600006437302 L 34 2521.600006437302 A 8 8 0 0 1 26 2513.600006437302 L 26 2451.600006437302 L 26 2451.600006437302 A 8 8 0 0 1 34 2443.600006437302 L 300 2443.600006437302 Z" fill-opacity="1" stroke-opacity="1" stroke-miterlimit="10" stroke-width="5"/><text fill="rgb(0,0,0)" stroke="none" font-family="Avenir, Helvetica, Arial, sans-serif" font-size="32px" font-style="normal" font-weight="bold" text-decoration="normal" x="300" y="2498.600006437302" text-anchor="middle" dominant-baseline="text-after-edge" fill-opacity="1">noncurrent_hard_rule_enabled</text><path fill="rgb(225,240,255)" stroke="rgb(29,122,218)" paint-order="fill stroke markers" d=" M 903.0000007152557 2443.600006437302 L 1169.0000007152557 2443.600006437302 L 1169.0000007152557 2443.600006437302 A 8 8 0 0 1 1177.0000007152557 2451.600006437302 L 1177.0000007152557 2513.600006437302 L 1177.0000007152557 2513.600006437302 A 8 8 0 0 1 1169.0000007152557 2521.600006437302 L 637.0000007152557 2521.600006437302 L 637.0000007152557 2521.600006437302 A 8 8 0 0 1 629.0000007152557 2513.600006437302 L 629.0000007152557 2451.600006437302 L 629.0000007152557 2451.600006437302 A 8 8 0 0 1 637.0000007152557 2443.600006437302 L 903.0000007152557 2443.600006437302 Z" fill-opacity="1" stroke-opacity="1" stroke-miterlimit="10" stroke-width="5"/><text fill="rgb(0,0,0)" stroke="none" font-family="Avenir, Helvetica, Arial, sans-serif" font-size="32px" font-style="normal" font-weight="bold" text-decoration="normal" x="903.0000007152557" y="2498.600006437302" text-anchor="middle" dominant-baseline="text-after-edge" fill-opacity="1">noncurrent_expiration_days</text><path fill="rgb(225,240,255)" stroke="rgb(29,122,218)" paint-order="fill stroke markers" d=" M 1506.0000014305115 2443.600006437302 L 1772.0000014305115 2443.600006437302 L 1772.0000014305115 2443.600006437302 A 8 8 0 0 1 1780.0000014305115 2451.600006437302 L 1780.0000014305115 2513.600006437302 L 1780.0000014305115 2513.600006437302 A 8 8 0 0 1 1772.0000014305115 2521.600006437302 L 1240.0000014305115 2521.600006437302 L 1240.0000014305115 2521.600006437302 A 8 8 0 0 1 1232.0000014305115 2513.600006437302 L 1232.0000014305115 2451.600006437302 L 1232.0000014305115 2451.600006437302 A 8 8 0 0 1 1240.0000014305115 2443.600006437302 L 1506.0000014305115 2443.600006437302 Z" fill-opacity="1" stroke-opacity="1" stroke-miterlimit="10" stroke-width="5"/><text fill="rgb(0,0,0)" stroke="none" font-family="Avenir, Helvetica, Arial, sans-serif" font-size="32px" font-style="normal" font-weight="bold" text-decoration="normal" x="1506.0000014305115" y="2498.600006437302" text-anchor="middle" dominant-baseline="text-after-edge" fill-opacity="1">ignore_public_acls</text><path fill="rgb(225,240,255)" stroke="rgb(29,122,218)" paint-order="fill stroke markers" d=" M 300 2576.6000071525577 L 566 2576.6000071525577 L 566 2576.6000071525577 A 8 8 0 0 1 574 2584.6000071525577 L 574 2646.6000071525577 L 574 2646.6000071525577 A 8 8 0 0 1 566 2654.6000071525577 L 34 2654.6000071525577 L 34 2654.6000071525577 A 8 8 0 0 1 26 2646.6000071525577 L 26 2584.6000071525577 L 26 2584.6000071525577 A 8 8 0 0 1 34 2576.6000071525577 L 300 2576.6000071525577 Z" fill-opacity="1" stroke-opacity="1" stroke-miterlimit="10" stroke-width="5"/><text fill="rgb(0,0,0)" stroke="none" font-family="Avenir, Helvetica, Arial, sans-serif" font-size="32px" font-style="normal" font-weight="bold" text-decoration="normal" x="300" y="2631.6000071525577" text-anchor="middle" dominant-baseline="text-after-edge" fill-opacity="1">current_expiration_days</text><path fill="rgb(225,240,255)" stroke="rgb(29,122,218)" paint-order="fill stroke markers" d=" M 903.0000007152557 2576.6000071525577 L 1169.0000007152557 2576.6000071525577 L 1169.0000007152557 2576.6000071525577 A 8 8 0 0 1 1177.0000007152557 2584.6000071525577 L 1177.0000007152557 2646.6000071525577 L 1177.0000007152557 2646.6000071525577 A 8 8 0 0 1 1169.0000007152557 2654.6000071525577 L 637.0000007152557 2654.6000071525577 L 637.0000007152557 2654.6000071525577 A 8 8 0 0 1 629.0000007152557 2646.6000071525577 L 629.0000007152557 2584.6000071525577 L 629.0000007152557 2584.6000071525577 A 8 8 0 0 1 637.0000007152557 2576.6000071525577 L 903.0000007152557 2576.6000071525577 Z" fill-opacity="1" stroke-opacity="1" stroke-miterlimit="10" stroke-width="5"/><text fill="rgb(0,0,0)" stroke="none" font-family="Avenir, Helvetica, Arial, sans-serif" font-size="32px" font-style="normal" font-weight="bold" text-decoration="normal" x="903.0000007152557" y="2631.6000071525577" text-anchor="middle" dominant-baseline="text-after-edge" fill-opacity="1">force_destroy</text><path fill="rgb(225,240,255)" stroke="rgb(29,122,218)" paint-order="fill stroke markers" d=" M 1506.0000014305115 2576.6000071525577 L 1772.0000014305115 2576.6000071525577 L 1772.0000014305115 2576.6000071525577 A 8 8 0 0 1 1780.0000014305115 2584.6000071525577 L 1780.0000014305115 2646.6000071525577 L 1780.0000014305115 2646.6000071525577 A 8 8 0 0 1 1772.0000014305115 2654.6000071525577 L 1240.0000014305115 2654.6000071525577 L 1240.0000014305115 2654.6000071525577 A 8 8 0 0 1 1232.0000014305115 2646.6000071525577 L 1232.0000014305115 2584.6000071525577 L 1232.0000014305115 2584.6000071525577 A 8 8 0 0 1 1240.0000014305115 2576.6000071525577 L 1506.0000014305115 2576.6000071525577 Z" fill-opacity="1" stroke-opacity="1" stroke-miterlimit="10" stroke-width="5"/><text fill="rgb(0,0,0)" stroke="none" font-family="Avenir, Helvetica, Arial, sans-serif" font-size="32px" font-style="normal" font-weight="bold" text-decoration="normal" x="1506.0000014305115" y="2631.6000071525577" text-anchor="middle" dominant-baseline="text-after-edge" fill-opacity="1">current_hard_rule_enabled</text><path fill="rgb(225,240,255)" stroke="rgb(29,122,218)" paint-order="fill stroke markers" d=" M 1506.0000014305115 2975.600009298325 L 1772.0000014305115 2975.600009298325 L 1772.0000014305115 2975.600009298325 A 8 8 0 0 1 1780.0000014305115 2983.600009298325 L 1780.0000014305115 3045.600009298325 L 1780.0000014305115 3045.600009298325 A 8 8 0 0 1 1772.0000014305115 3053.600009298325 L 1240.0000014305115 3053.600009298325 L 1240.0000014305115 3053.600009298325 A 8 8 0 0 1 1232.0000014305115 3045.600009298325 L 1232.0000014305115 2983.600009298325 L 1232.0000014305115 2983.600009298325 A 8 8 0 0 1 1240.0000014305115 2975.600009298325 L 1506.0000014305115 2975.600009298325 Z" fill-opacity="1" stroke-opacity="1" stroke-miterlimit="10" stroke-width="5"/><text fill="rgb(0,0,0)" stroke="none" font-family="Avenir, Helvetica, Arial, sans-serif" font-size="32px" font-style="normal" font-weight="bold" text-decoration="normal" x="1506.0000014305115" y="3030.600009298325" text-anchor="middle" dominant-baseline="text-after-edge" fill-opacity="1">current_soft_transition_storage_class</text><path fill="rgb(225,240,255)" stroke="rgb(29,122,218)" paint-order="fill stroke markers" d=" M 300 2709.6000078678135 L 566 2709.6000078678135 L 566 2709.6000078678135 A 8 8 0 0 1 574 2717.6000078678135 L 574 2779.6000078678135 L 574 2779.6000078678135 A 8 8 0 0 1 566 2787.6000078678135 L 34 2787.6000078678135 L 34 2787.6000078678135 A 8 8 0 0 1 26 2779.6000078678135 L 26 2717.6000078678135 L 26 2717.6000078678135 A 8 8 0 0 1 34 2709.6000078678135 L 300 2709.6000078678135 Z" fill-opacity="1" stroke-opacity="1" stroke-miterlimit="10" stroke-width="5"/><text fill="rgb(0,0,0)" stroke="none" font-family="Avenir, Helvetica, Arial, sans-serif" font-size="32px" font-style="normal" font-weight="bold" text-decoration="normal" x="300" y="2764.6000078678135" text-anchor="middle" dominant-baseline="text-after-edge" fill-opacity="1">current_hard_transition_days</text><path fill="rgb(225,240,255)" stroke="rgb(29,122,218)" paint-order="fill stroke markers" d=" M 903.0000007152557 2709.6000078678135 L 1169.0000007152557 2709.6000078678135 L 1169.0000007152557 2709.6000078678135 A 8 8 0 0 1 1177.0000007152557 2717.6000078678135 L 1177.0000007152557 2779.6000078678135 L 1177.0000007152557 2779.6000078678135 A 8 8 0 0 1 1169.0000007152557 2787.6000078678135 L 637.0000007152557 2787.6000078678135 L 637.0000007152557 2787.6000078678135 A 8 8 0 0 1 629.0000007152557 2779.6000078678135 L 629.0000007152557 2717.6000078678135 L 629.0000007152557 2717.6000078678135 A 8 8 0 0 1 637.0000007152557 2709.6000078678135 L 903.0000007152557 2709.6000078678135 Z" fill-opacity="1" stroke-opacity="1" stroke-miterlimit="10" stroke-width="5"/><text fill="rgb(0,0,0)" stroke="none" font-family="Avenir, Helvetica, Arial, sans-serif" font-size="32px" font-style="normal" font-weight="bold" text-decoration="normal" x="903.0000007152557" y="2764.6000078678135" text-anchor="middle" dominant-baseline="text-after-edge" fill-opacity="1">static_unique_id</text><path fill="rgb(225,240,255)" stroke="rgb(29,122,218)" paint-order="fill stroke markers" d=" M 1506.0000014305115 2709.6000078678135 L 1772.0000014305115 2709.6000078678135 L 1772.0000014305115 2709.6000078678135 A 8 8 0 0 1 1780.0000014305115 2717.6000078678135 L 1780.0000014305115 2779.6000078678135 L 1780.0000014305115 2779.6000078678135 A 8 8 0 0 1 1772.0000014305115 2787.6000078678135 L 1240.0000014305115 2787.6000078678135 L 1240.0000014305115 2787.6000078678135 A 8 8 0 0 1 1232.0000014305115 2779.6000078678135 L 1232.0000014305115 2717.6000078678135 L 1232.0000014305115 2717.6000078678135 A 8 8 0 0 1 1240.0000014305115 2709.6000078678135 L 1506.0000014305115 2709.6000078678135 Z" fill-opacity="1" stroke-opacity="1" stroke-miterlimit="10" stroke-width="5"/><text fill="rgb(0,0,0)" stroke="none" font-family="Avenir, Helvetica, Arial, sans-serif" font-size="32px" font-style="normal" font-weight="bold" text-decoration="normal" x="1506.0000014305115" y="2764.6000078678135" text-anchor="middle" dominant-baseline="text-after-edge" fill-opacity="1">current_hard_prefix</text><path fill="rgb(225,240,255)" stroke="rgb(29,122,218)" paint-order="fill stroke markers" d=" M 1654.0000014305115 3108.6000100135807 L 1920.0000014305115 3108.6000100135807 L 1920.0000014305115 3108.6000100135807 A 8 8 0 0 1 1928.0000014305115 3116.6000100135807 L 1928.0000014305115 3178.6000100135807 L 1928.0000014305115 3178.6000100135807 A 8 8 0 0 1 1920.0000014305115 3186.6000100135807 L 1388.0000014305115 3186.6000100135807 L 1388.0000014305115 3186.6000100135807 A 8 8 0 0 1 1380.0000014305115 3178.6000100135807 L 1380.0000014305115 3116.6000100135807 L 1380.0000014305115 3116.6000100135807 A 8 8 0 0 1 1388.0000014305115 3108.6000100135807 L 1654.0000014305115 3108.6000100135807 Z" fill-opacity="1" stroke-opacity="1" stroke-miterlimit="10" stroke-width="5"/><text fill="rgb(0,0,0)" stroke="none" font-family="Avenir, Helvetica, Arial, sans-serif" font-size="32px" font-style="normal" font-weight="bold" text-decoration="normal" x="1654.0000014305115" y="3163.6000100135807" text-anchor="middle" dominant-baseline="text-after-edge" fill-opacity="1">noncurrent_hard_transition_storage_class</text><path fill="rgb(225,240,255)" stroke="rgb(29,122,218)" paint-order="fill stroke markers" d=" M 300 2842.600008583069 L 566 2842.600008583069 L 566 2842.600008583069 A 8 8 0 0 1 574 2850.600008583069 L 574 2912.600008583069 L 574 2912.600008583069 A 8 8 0 0 1 566 2920.600008583069 L 34 2920.600008583069 L 34 2920.600008583069 A 8 8 0 0 1 26 2912.600008583069 L 26 2850.600008583069 L 26 2850.600008583069 A 8 8 0 0 1 34 2842.600008583069 L 300 2842.600008583069 Z" fill-opacity="1" stroke-opacity="1" stroke-miterlimit="10" stroke-width="5"/><text fill="rgb(0,0,0)" stroke="none" font-family="Avenir, Helvetica, Arial, sans-serif" font-size="32px" font-style="normal" font-weight="bold" text-decoration="normal" x="300" y="2897.600008583069" text-anchor="middle" dominant-baseline="text-after-edge" fill-opacity="1">current_soft_rule_enabled</text><path fill="rgb(225,240,255)" stroke="rgb(29,122,218)" paint-order="fill stroke markers" d=" M 903.0000007152557 2842.600008583069 L 1169.0000007152557 2842.600008583069 L 1169.0000007152557 2842.600008583069 A 8 8 0 0 1 1177.0000007152557 2850.600008583069 L 1177.0000007152557 2912.600008583069 L 1177.0000007152557 2912.600008583069 A 8 8 0 0 1 1169.0000007152557 2920.600008583069 L 637.0000007152557 2920.600008583069 L 637.0000007152557 2920.600008583069 A 8 8 0 0 1 629.0000007152557 2912.600008583069 L 629.0000007152557 2850.600008583069 L 629.0000007152557 2850.600008583069 A 8 8 0 0 1 637.0000007152557 2842.600008583069 L 903.0000007152557 2842.600008583069 Z" fill-opacity="1" stroke-opacity="1" stroke-miterlimit="10" stroke-width="5"/><text fill="rgb(0,0,0)" stroke="none" font-family="Avenir, Helvetica, Arial, sans-serif" font-size="32px" font-style="normal" font-weight="bold" text-decoration="normal" x="903.0000007152557" y="2897.600008583069" text-anchor="middle" dominant-baseline="text-after-edge" fill-opacity="1">tags</text><path fill="rgb(225,240,255)" stroke="rgb(29,122,218)" paint-order="fill stroke markers" d=" M 1506.0000014305115 2842.600008583069 L 1772.0000014305115 2842.600008583069 L 1772.0000014305115 2842.600008583069 A 8 8 0 0 1 1780.0000014305115 2850.600008583069 L 1780.0000014305115 2912.600008583069 L 1780.0000014305115 2912.600008583069 A 8 8 0 0 1 1772.0000014305115 2920.600008583069 L 1240.0000014305115 2920.600008583069 L 1240.0000014305115 2920.600008583069 A 8 8 0 0 1 1232.0000014305115 2912.600008583069 L 1232.0000014305115 2850.600008583069 L 1232.0000014305115 2850.600008583069 A 8 8 0 0 1 1240.0000014305115 2842.600008583069 L 1506.0000014305115 2842.600008583069 Z" fill-opacity="1" stroke-opacity="1" stroke-miterlimit="10" stroke-width="5"/><text fill="rgb(0,0,0)" stroke="none" font-family="Avenir, Helvetica, Arial, sans-serif" font-size="32px" font-style="normal" font-weight="bold" text-decoration="normal" x="1506.0000014305115" y="2897.600008583069" text-anchor="middle" dominant-baseline="text-after-edge" fill-opacity="1">noncurrent_expiration_prefix</text><path fill="rgb(225,240,255)" stroke="rgb(29,122,218)" paint-order="fill stroke markers" d=" M 300 2975.600009298325 L 566 2975.600009298325 L 566 2975.600009298325 A 8 8 0 0 1 574 2983.600009298325 L 574 3045.600009298325 L 574 3045.600009298325 A 8 8 0 0 1 566 3053.600009298325 L 34 3053.600009298325 L 34 3053.600009298325 A 8 8 0 0 1 26 3045.600009298325 L 26 2983.600009298325 L 26 2983.600009298325 A 8 8 0 0 1 34 2975.600009298325 L 300 2975.600009298325 Z" fill-opacity="1" stroke-opacity="1" stroke-miterlimit="10" stroke-width="5"/><text fill="rgb(0,0,0)" stroke="none" font-family="Avenir, Helvetica, Arial, sans-serif" font-size="32px" font-style="normal" font-weight="bold" text-decoration="normal" x="300" y="3030.600009298325" text-anchor="middle" dominant-baseline="text-after-edge" fill-opacity="1">noncurrent_hard_prefix</text><path fill="rgb(225,240,255)" stroke="rgb(29,122,218)" paint-order="fill stroke markers" d=" M 903.0000007152557 2975.600009298325 L 1169.0000007152557 2975.600009298325 L 1169.0000007152557 2975.600009298325 A 8 8 0 0 1 1177.0000007152557 2983.600009298325 L 1177.0000007152557 3045.600009298325 L 1177.0000007152557 3045.600009298325 A 8 8 0 0 1 1169.0000007152557 3053.600009298325 L 637.0000007152557 3053.600009298325 L 637.0000007152557 3053.600009298325 A 8 8 0 0 1 629.0000007152557 3045.600009298325 L 629.0000007152557 2983.600009298325 L 629.0000007152557 2983.600009298325 A 8 8 0 0 1 637.0000007152557 2975.600009298325 L 903.0000007152557 2975.600009298325 Z" fill-opacity="1" stroke-opacity="1" stroke-miterlimit="10" stroke-width="5"/><text fill="rgb(0,0,0)" stroke="none" font-family="Avenir, Helvetica, Arial, sans-serif" font-size="32px" font-style="normal" font-weight="bold" text-decoration="normal" x="903.0000007152557" y="3030.600009298325" text-anchor="middle" dominant-baseline="text-after-edge" fill-opacity="1">noncurrent_hard_transition_days</text><path fill="rgb(40,167,69)" stroke="none" paint-order="stroke fill markers" d=" M 2406.0000014305115 361 L 2672.0000014305115 361 L 2672.0000014305115 361 A 8 8 0 0 1 2680.0000014305115 369 L 2680.0000014305115 431 L 2680.0000014305115 431 A 8 8 0 0 1 2672.0000014305115 439 L 2140.0000014305115 439 L 2140.0000014305115 439 A 8 8 0 0 1 2132.0000014305115 431 L 2132.0000014305115 369 L 2132.0000014305115 369 A 8 8 0 0 1 2140.0000014305115 361 L 2406.0000014305115 361 Z" fill-opacity="1"/><text fill="rgb(255,255,255)" stroke="none" font-family="Avenir, Helvetica, Arial, sans-serif" font-size="32px" font-style="normal" font-weight="bold" text-decoration="normal" x="2406.0000014305115" y="416" text-anchor="middle" dominant-baseline="text-after-edge" fill-opacity="1">bucket</text><path fill="rgb(40,167,69)" stroke="none" paint-order="stroke fill markers" d=" M 3204.200002145767 361 L 3470.200002145767 361 L 3470.200002145767 361 A 8 8 0 0 1 3478.200002145767 369 L 3478.200002145767 431 L 3478.200002145767 431 A 8 8 0 0 1 3470.200002145767 439 L 2938.200002145767 439 L 2938.200002145767 439 A 8 8 0 0 1 2930.200002145767 431 L 2930.200002145767 369 L 2930.200002145767 369 A 8 8 0 0 1 2938.200002145767 361 L 3204.200002145767 361 Z" fill-opacity="1"/><text fill="rgb(255,255,255)" stroke="none" font-family="Avenir, Helvetica, Arial, sans-serif" font-size="32px" font-style="normal" font-weight="bold" text-decoration="normal" x="3204.200002145767" y="416" text-anchor="middle" dominant-baseline="text-after-edge" fill-opacity="1">block_public</text><path fill="rgb(40,167,69)" stroke="none" paint-order="stroke fill markers" d=" M 2406.0000014305115 689.2000007152558 L 2672.0000014305115 689.2000007152558 L 2672.0000014305115 689.2000007152558 A 8 8 0 0 1 2680.0000014305115 697.2000007152558 L 2680.0000014305115 759.2000007152558 L 2680.0000014305115 759.2000007152558 A 8 8 0 0 1 2672.0000014305115 767.2000007152558 L 2140.0000014305115 767.2000007152558 L 2140.0000014305115 767.2000007152558 A 8 8 0 0 1 2132.0000014305115 759.2000007152558 L 2132.0000014305115 697.2000007152558 L 2132.0000014305115 697.2000007152558 A 8 8 0 0 1 2140.0000014305115 689.2000007152558 L 2406.0000014305115 689.2000007152558 Z" fill-opacity="1"/><text fill="rgb(255,255,255)" stroke="none" font-family="Avenir, Helvetica, Arial, sans-serif" font-size="32px" font-style="normal" font-weight="bold" text-decoration="normal" x="2406.0000014305115" y="744.2000007152558" text-anchor="middle" dominant-baseline="text-after-edge" fill-opacity="1">bucket</text><path fill="rgb(40,167,69)" stroke="none" paint-order="stroke fill markers" d=" M 3204.200002145767 689.2000007152558 L 3470.200002145767 689.2000007152558 L 3470.200002145767 689.2000007152558 A 8 8 0 0 1 3478.200002145767 697.2000007152558 L 3478.200002145767 759.2000007152558 L 3478.200002145767 759.2000007152558 A 8 8 0 0 1 3470.200002145767 767.2000007152558 L 2938.200002145767 767.2000007152558 L 2938.200002145767 767.2000007152558 A 8 8 0 0 1 2930.200002145767 759.2000007152558 L 2930.200002145767 697.2000007152558 L 2930.200002145767 697.2000007152558 A 8 8 0 0 1 2938.200002145767 689.2000007152558 L 3204.200002145767 689.2000007152558 Z" fill-opacity="1"/><text fill="rgb(255,255,255)" stroke="none" font-family="Avenir, Helvetica, Arial, sans-serif" font-size="32px" font-style="normal" font-weight="bold" text-decoration="normal" x="3204.200002145767" y="744.2000007152558" text-anchor="middle" dominant-baseline="text-after-edge" fill-opacity="1">bucket</text><path fill="rgb(40,167,69)" stroke="none" paint-order="stroke fill markers" d=" M 2406.0000014305115 1017.4000014305116 L 2672.0000014305115 1017.4000014305116 L 2672.0000014305115 1017.4000014305116 A 8 8 0 0 1 2680.0000014305115 1025.4000014305116 L 2680.0000014305115 1087.4000014305116 L 2680.0000014305115 1087.4000014305116 A 8 8 0 0 1 2672.0000014305115 1095.4000014305116 L 2140.0000014305115 1095.4000014305116 L 2140.0000014305115 1095.4000014305116 A 8 8 0 0 1 2132.0000014305115 1087.4000014305116 L 2132.0000014305115 1025.4000014305116 L 2132.0000014305115 1025.4000014305116 A 8 8 0 0 1 2140.0000014305115 1017.4000014305116 L 2406.0000014305115 1017.4000014305116 Z" fill-opacity="1"/><text fill="rgb(255,255,255)" stroke="none" font-family="Avenir, Helvetica, Arial, sans-serif" font-size="32px" font-style="normal" font-weight="bold" text-decoration="normal" x="2406.0000014305115" y="1072.4000014305116" text-anchor="middle" dominant-baseline="text-after-edge" fill-opacity="1">bucket</text><path fill="rgb(40,167,69)" stroke="none" paint-order="stroke fill markers" d=" M 3204.200002145767 1017.4000014305116 L 3470.200002145767 1017.4000014305116 L 3470.200002145767 1017.4000014305116 A 8 8 0 0 1 3478.200002145767 1025.4000014305116 L 3478.200002145767 1087.4000014305116 L 3478.200002145767 1087.4000014305116 A 8 8 0 0 1 3470.200002145767 1095.4000014305116 L 2938.200002145767 1095.4000014305116 L 2938.200002145767 1095.4000014305116 A 8 8 0 0 1 2930.200002145767 1087.4000014305116 L 2930.200002145767 1025.4000014305116 L 2930.200002145767 1025.4000014305116 A 8 8 0 0 1 2938.200002145767 1017.4000014305116 L 3204.200002145767 1017.4000014305116 Z" fill-opacity="1"/><text fill="rgb(255,255,255)" stroke="none" font-family="Avenir, Helvetica, Arial, sans-serif" font-size="32px" font-style="normal" font-weight="bold" text-decoration="normal" x="3204.200002145767" y="1072.4000014305116" text-anchor="middle" dominant-baseline="text-after-edge" fill-opacity="1">bucket</text><path fill="rgb(0,0,0)" stroke="rgb(0,0,0)" paint-order="fill stroke markers" d=" M 300 261 L 566 261 L 566 261 A 8 8 0 0 1 574 269 L 574 331 L 574 331 A 8 8 0 0 1 566 339 L 34 339 L 34 339 A 8 8 0 0 1 26 331 L 26 269 L 26 269 A 8 8 0 0 1 34 261 L 300 261 Z" fill-opacity="1" stroke-opacity="1" stroke-miterlimit="10" stroke-width="5"/><text fill="rgb(255,255,255)" stroke="none" font-family="Avenir, Helvetica, Arial, sans-serif" font-size="32px" font-style="normal" font-weight="bold" text-decoration="normal" x="300" y="316" text-anchor="middle" dominant-baseline="text-after-edge" fill-opacity="1">tags</text><g transform="scale(10,10) translate(-30.450000000000003,-4.75)"/></g></svg>